<svg xmlns="http://www.w3.org/2000/svg" width="1200" height="630" viewBox="0 0 1200 630" role="img" aria-labelledby="title desc">
  <title id="title">Zero-Dose Nigeria</title>
  <desc id="desc">Social preview card for the Nigeria zero-dose vaccination recovery dashboard.</desc>
  <defs>
    <linearGradient id="bg" x1="0" x2="1" y1="0" y2="1">
      <stop offset="0" stop-color="#06351f"/>
      <stop offset="0.52" stop-color="#006633"/>
      <stop offset="1" stop-color="#d9a21b"/>
    </linearGradient>
    <pattern id="grid" width="42" height="42" patternUnits="userSpaceOnUse">
      <path d="M42 0H0V42" fill="none" stroke="rgba(255,255,255,0.12)" stroke-width="1"/>
    </pattern>
  </defs>
  <rect width="1200" height="630" fill="url(#bg)"/>
  <rect width="1200" height="630" fill="url(#grid)" opacity="0.55"/>
  <path d="M827 84c66 35 118 91 156 169 50 103 71 196 129 257H738c-31-60-61-137-38-229 19-76 59-143 127-197Z" fill="rgba(255,255,255,0.16)"/>
  <path d="M728 177c67-45 142-49 224-12-48 36-82 82-102 139-72-13-115-56-122-127Z" fill="rgba(255,255,255,0.22)"/>
  <g fill="#fff">
    <text x="92" y="118" font-family="Arial, sans-serif" font-size="25" font-weight="700" letter-spacing="3">NDHS 2024 | ML-ABM-CNA</text>
    <text x="88" y="238" font-family="Georgia, serif" font-size="72" font-weight="700">Two community</text>
    <text x="88" y="322" font-family="Georgia, serif" font-size="72" font-weight="700">types. Two recipes.</text>
    <text x="92" y="394" font-family="Arial, sans-serif" font-size="31" fill="rgba(255,255,255,0.9)">Vaccination coverage recovery in Nigeria's</text>
    <text x="92" y="438" font-family="Arial, sans-serif" font-size="31" fill="rgba(255,255,255,0.9)">zero-dose communities</text>
  </g>
  <g transform="translate(92 510)">
    <rect width="186" height="54" rx="6" fill="rgba(255,255,255,0.16)" stroke="rgba(255,255,255,0.35)"/>
    <text x="24" y="34" font-family="Arial, sans-serif" font-size="21" font-weight="700" fill="#fff">36.8% ZD</text>
    <rect x="214" width="214" height="54" rx="6" fill="rgba(255,255,255,0.16)" stroke="rgba(255,255,255,0.35)"/>
    <text x="238" y="34" font-family="Arial, sans-serif" font-size="21" font-weight="700" fill="#fff">1,283 communities</text>
    <rect x="456" width="156" height="54" rx="6" fill="rgba(255,255,255,0.16)" stroke="rgba(255,255,255,0.35)"/>
    <text x="480" y="34" font-family="Arial, sans-serif" font-size="21" font-weight="700" fill="#fff">AUC 0.972</text>
  </g>
</svg>
